<?xml version="1.0" encoding="UTF-8"?>
<svg id="Layer_1" xmlns="http://www.w3.org/2000/svg" version="1.1" viewBox="0 0 161.042 161.043">
  <!-- Generator: Adobe Illustrator 30.6.0, SVG Export Plug-In . SVG Version: 2.1.4 Build 109)  -->
  <defs>
    <style>
      .st0 {
        fill: none;
        stroke: #000;
        stroke-miterlimit: 10;
      }

      .st1 {
        fill: #fff;
      }

      .st2 {
        fill: green;
      }
    </style>
  </defs>
  <g>
    <g>
      <path class="st2" d="M154.431,49.912c8.45,20.41,7.84,42.31,0,61.22l-.49-.2-22.61-9.36c5.39-13,5.82-28.06,0-42.1l23.1-9.56Z"/>
      <path class="st1" d="M154.431,49.912l-23.1,9.56c-5.81-14.03-16.76-24.38-29.76-29.76l9.34-22.55.23-.55c18.91,7.84,34.84,22.89,43.29,43.3Z"/>
      <path class="st1" d="M153.941,110.932l.49.2c-7.83,18.92-22.89,34.85-43.3,43.3l-9.56-23.1c14.03-5.81,24.38-16.76,29.76-29.76l22.61,9.36Z"/>
      <path class="st2" d="M101.571,29.712c13,5.38,23.95,15.73,29.76,29.76,5.82,14.04,5.39,29.1,0,42.1-5.38,13-15.73,23.95-29.76,29.76-14.04,5.82-29.1,5.39-42.1,0-13-5.38-23.95-15.73-29.76-29.76-5.82-14.04-5.39-29.1,0-42.1,5.38-13,15.73-23.95,29.76-29.76,14.04-5.82,29.1-5.39,42.1,0ZM99.651,126.712c25.52-10.56,37.63-39.81,27.06-65.32-10.56-25.52-39.81-37.63-65.32-27.06-25.52,10.56-37.63,39.81-27.06,65.32,10.56,25.52,39.81,37.63,65.32,27.06Z"/>
      <path class="st1" d="M126.711,61.392c10.57,25.51-1.54,54.76-27.06,65.32-25.51,10.57-54.76-1.54-65.32-27.06-10.57-25.51,1.54-54.76,27.06-65.32,25.51-10.57,54.76,1.54,65.32,27.06Z"/>
      <path class="st2" d="M111.141,6.612l-.23.55-9.34,22.55c-13-5.39-28.06-5.82-42.1,0l-9.16-22.14-.39-.96v-.01c20.41-8.45,42.31-7.82,61.22.01Z"/>
      <path class="st2" d="M101.571,131.332l9.56,23.1c-20.41,8.46-42.31,7.83-61.23,0l.23-.55,9.34-22.55c13,5.39,28.06,5.82,42.1,0Z"/>
      <path class="st1" d="M59.471,131.332l-9.34,22.55-.23.55c-18.91-7.84-34.84-22.89-43.29-43.3l23.1-9.56c5.81,14.03,16.76,24.38,29.76,29.76Z"/>
      <path class="st1" d="M50.311,7.572l9.16,22.14c-14.03,5.81-24.38,16.76-29.76,29.76l-22.63-9.37-.47-.19C14.441,30.992,29.501,15.062,49.911,6.612h.01l.39.96Z"/>
      <path class="st2" d="M7.081,50.102l22.63,9.37c-5.39,13-5.82,28.06,0,42.1l-23.1,9.56c-8.45-20.41-7.84-42.31,0-61.22l.47.19Z"/>
    </g>
    <g>
      <path class="st0" d="M154.431,49.912c8.45,20.41,7.84,42.31,0,61.22-7.83,18.92-22.89,34.85-43.3,43.3-20.41,8.46-42.31,7.83-61.23,0-18.91-7.84-34.84-22.89-43.29-43.3s-7.84-42.31,0-61.22C14.441,30.992,29.501,15.062,49.911,6.612h.01v-.01c20.41-8.45,42.31-7.82,61.22.01,18.91,7.84,34.84,22.89,43.29,43.3Z"/>
      <path class="st0" d="M131.331,59.472c5.82,14.04,5.39,29.1,0,42.1-5.38,13-15.73,23.95-29.76,29.76-14.04,5.82-29.1,5.39-42.1,0-13-5.38-23.95-15.73-29.76-29.76-5.82-14.04-5.39-29.1,0-42.1,5.38-13,15.73-23.95,29.76-29.76,14.04-5.82,29.1-5.39,42.1,0,13,5.38,23.95,15.73,29.76,29.76Z"/>
      <path class="st0" d="M126.711,61.392c10.57,25.51-1.54,54.76-27.06,65.32-25.51,10.57-54.76-1.54-65.32-27.06-10.57-25.51,1.54-54.76,27.06-65.32,25.51-10.57,54.76,1.54,65.32,27.06Z"/>
      <line class="st0" x1="50.311" y1="7.572" x2="59.471" y2="29.712"/>
      <line class="st0" x1="101.571" y1="131.332" x2="111.131" y2="154.432"/>
      <line class="st0" x1="131.331" y1="59.472" x2="154.431" y2="49.912"/>
      <line class="st0" x1="29.711" y1="101.572" x2="6.611" y2="111.132"/>
      <polyline class="st0" points="7.081 50.102 29.711 59.472 30.171 59.662"/>
      <polyline class="st0" points="110.911 7.162 101.571 29.712 101.401 30.122"/>
      <polyline class="st0" points="153.941 110.932 131.331 101.572 130.811 101.352"/>
      <polyline class="st0" points="50.131 153.882 59.471 131.332 59.641 130.932"/>
    </g>
  </g>
  <g>
    <path d="M51.029,98.611v-5.65l13.201-12.225c1.123-1.086,2.068-2.064,2.836-2.934.766-.87,1.348-1.724,1.746-2.563.398-.839.598-1.748.598-2.726,0-1.086-.246-2.025-.742-2.816-.494-.791-1.172-1.4-2.027-1.829-.857-.428-1.83-.643-2.916-.643-1.135,0-2.125.229-2.971.688s-1.498,1.117-1.955,1.974c-.459.857-.689,1.877-.689,3.061h-7.443c0-2.427.549-4.534,1.648-6.321,1.098-1.787,2.639-3.169,4.617-4.147,1.98-.978,4.264-1.467,6.848-1.467,2.654,0,4.971.468,6.945,1.404,1.973.936,3.51,2.23,4.609,3.885,1.098,1.654,1.646,3.55,1.646,5.687,0,1.401-.273,2.783-.824,4.147-.549,1.365-1.523,2.877-2.924,4.537-1.4,1.66-3.375,3.649-5.922,5.968l-5.416,5.307v.253h15.576v6.411h-26.441Z"/>
    <path d="M96.703,99.119c-2.561,0-4.839-.472-6.837-1.413-1.999-.941-3.583-2.239-4.755-3.894-1.171-1.654-1.78-3.55-1.829-5.688h7.606c.085,1.438.688,2.603,1.812,3.496s2.457,1.34,4.003,1.34c1.231,0,2.32-.274,3.269-.824.947-.549,1.69-1.315,2.228-2.3s.806-2.116.806-3.396c0-1.305-.274-2.451-.823-3.441-.55-.99-1.308-1.762-2.273-2.318-.966-.555-2.07-.839-3.314-.851-1.086,0-2.14.224-3.16.67-1.021.447-1.814,1.057-2.382,1.829l-6.973-1.25,1.757-19.56h22.675v6.411h-16.209l-.96,9.291h.218c.651-.917,1.636-1.678,2.952-2.282,1.315-.604,2.789-.905,4.419-.905,2.233,0,4.226.525,5.977,1.576,1.75,1.05,3.133,2.49,4.147,4.319,1.014,1.829,1.515,3.933,1.503,6.312.012,2.499-.564,4.718-1.729,6.655-1.166,1.938-2.789,3.459-4.872,4.564-2.083,1.104-4.501,1.657-7.253,1.657Z"/>
  </g>
</svg>