<?xml version="1.0" encoding="UTF-8"?>
<svg id="Layer_1" xmlns="http://www.w3.org/2000/svg" version="1.1" viewBox="0 0 161.042 161.043">
  <!-- Generator: Adobe Illustrator 30.6.0, SVG Export Plug-In . SVG Version: 2.1.4 Build 109)  -->
  <defs>
    <style>
      .st0 {
        fill: none;
        stroke: #000;
        stroke-miterlimit: 10;
      }

      .st1 {
        fill: #fff;
      }
    </style>
  </defs>
  <g>
    <g>
      <path d="M154.431,49.912c8.45,20.41,7.84,42.31,0,61.22l-.49-.2-22.61-9.36c5.39-13,5.82-28.06,0-42.1l23.1-9.56Z"/>
      <path class="st1" d="M154.431,49.912l-23.1,9.56c-5.81-14.03-16.76-24.38-29.76-29.76l9.34-22.55.23-.55c18.91,7.84,34.84,22.89,43.29,43.3Z"/>
      <path class="st1" d="M153.941,110.932l.49.2c-7.83,18.92-22.89,34.85-43.3,43.3l-9.56-23.1c14.03-5.81,24.38-16.76,29.76-29.76l22.61,9.36Z"/>
      <path d="M101.571,29.712c13,5.38,23.95,15.73,29.76,29.76,5.82,14.04,5.39,29.1,0,42.1-5.38,13-15.73,23.95-29.76,29.76-14.04,5.82-29.1,5.39-42.1,0-13-5.38-23.95-15.73-29.76-29.76-5.82-14.04-5.39-29.1,0-42.1,5.38-13,15.73-23.95,29.76-29.76,14.04-5.82,29.1-5.39,42.1,0ZM99.651,126.712c25.52-10.56,37.63-39.81,27.06-65.32-10.56-25.52-39.81-37.63-65.32-27.06-25.52,10.56-37.63,39.81-27.06,65.32,10.56,25.52,39.81,37.63,65.32,27.06Z"/>
      <path class="st1" d="M126.711,61.392c10.57,25.51-1.54,54.76-27.06,65.32-25.51,10.57-54.76-1.54-65.32-27.06-10.57-25.51,1.54-54.76,27.06-65.32,25.51-10.57,54.76,1.54,65.32,27.06Z"/>
      <path d="M111.141,6.612l-.23.55-9.34,22.55c-13-5.39-28.06-5.82-42.1,0l-9.16-22.14-.39-.96v-.01c20.41-8.45,42.31-7.82,61.22.01Z"/>
      <path d="M101.571,131.332l9.56,23.1c-20.41,8.46-42.31,7.83-61.23,0l.23-.55,9.34-22.55c13,5.39,28.06,5.82,42.1,0Z"/>
      <path class="st1" d="M59.471,131.332l-9.34,22.55-.23.55c-18.91-7.84-34.84-22.89-43.29-43.3l23.1-9.56c5.81,14.03,16.76,24.38,29.76,29.76Z"/>
      <path class="st1" d="M50.311,7.572l9.16,22.14c-14.03,5.81-24.38,16.76-29.76,29.76l-22.63-9.37-.47-.19C14.441,30.992,29.501,15.062,49.911,6.612h.01l.39.96Z"/>
      <path d="M7.081,50.102l22.63,9.37c-5.39,13-5.82,28.06,0,42.1l-23.1,9.56c-8.45-20.41-7.84-42.31,0-61.22l.47.19Z"/>
    </g>
    <g>
      <path class="st0" d="M154.431,49.912c8.45,20.41,7.84,42.31,0,61.22-7.83,18.92-22.89,34.85-43.3,43.3-20.41,8.46-42.31,7.83-61.23,0-18.91-7.84-34.84-22.89-43.29-43.3s-7.84-42.31,0-61.22C14.441,30.992,29.501,15.062,49.911,6.612h.01v-.01c20.41-8.45,42.31-7.82,61.22.01,18.91,7.84,34.84,22.89,43.29,43.3Z"/>
      <path class="st0" d="M131.331,59.472c5.82,14.04,5.39,29.1,0,42.1-5.38,13-15.73,23.95-29.76,29.76-14.04,5.82-29.1,5.39-42.1,0-13-5.38-23.95-15.73-29.76-29.76-5.82-14.04-5.39-29.1,0-42.1,5.38-13,15.73-23.95,29.76-29.76,14.04-5.82,29.1-5.39,42.1,0,13,5.38,23.95,15.73,29.76,29.76Z"/>
      <path class="st0" d="M126.711,61.392c10.57,25.51-1.54,54.76-27.06,65.32-25.51,10.57-54.76-1.54-65.32-27.06-10.57-25.51,1.54-54.76,27.06-65.32,25.51-10.57,54.76,1.54,65.32,27.06Z"/>
      <line class="st0" x1="50.311" y1="7.572" x2="59.471" y2="29.712"/>
      <line class="st0" x1="101.571" y1="131.332" x2="111.131" y2="154.432"/>
      <line class="st0" x1="131.331" y1="59.472" x2="154.431" y2="49.912"/>
      <line class="st0" x1="29.711" y1="101.572" x2="6.611" y2="111.132"/>
      <polyline class="st0" points="7.081 50.102 29.711 59.472 30.171 59.662"/>
      <polyline class="st0" points="110.911 7.162 101.571 29.712 101.401 30.122"/>
      <polyline class="st0" points="153.941 110.932 131.331 101.572 130.811 101.352"/>
      <polyline class="st0" points="50.131 153.882 59.471 131.332 59.641 130.932"/>
    </g>
  </g>
  <g>
    <path d="M52.589,61.521v37.09h-7.844v-29.647h-.217l-8.494,5.325v-6.955l9.184-5.813h7.371Z"/>
    <path d="M75.95,99.427c-3.115-.013-5.793-.779-8.032-2.3-2.24-1.521-3.961-3.725-5.162-6.611-1.201-2.885-1.796-6.356-1.784-10.413,0-4.044.601-7.492,1.803-10.341,1.201-2.849,2.922-5.02,5.161-6.511s4.911-2.237,8.015-2.237,5.773.749,8.013,2.246c2.239,1.497,3.963,3.667,5.171,6.511,1.207,2.843,1.805,6.288,1.793,10.332,0,4.068-.602,7.546-1.803,10.432s-2.919,5.089-5.152,6.61-4.908,2.282-8.022,2.282ZM75.95,92.925c2.124,0,3.821-1.068,5.089-3.206,1.267-2.137,1.895-5.342,1.883-9.616,0-2.813-.287-5.155-.86-7.027-.574-1.872-1.382-3.278-2.426-4.22-1.045-.942-2.273-1.413-3.686-1.413-2.113,0-3.804,1.057-5.071,3.169-1.268,2.113-1.908,5.277-1.92,9.49,0,2.85.287,5.225.86,7.126.573,1.902,1.386,3.327,2.436,4.274,1.051.948,2.282,1.422,3.695,1.422Z"/>
    <path d="M111.048,99.427c-3.115-.013-5.793-.779-8.032-2.3-2.24-1.521-3.961-3.725-5.162-6.611-1.201-2.885-1.796-6.356-1.784-10.413,0-4.044.601-7.492,1.803-10.341,1.201-2.849,2.922-5.02,5.161-6.511s4.911-2.237,8.015-2.237,5.773.749,8.014,2.246c2.239,1.497,3.963,3.667,5.171,6.511,1.207,2.843,1.805,6.288,1.793,10.332,0,4.068-.602,7.546-1.803,10.432s-2.919,5.089-5.152,6.61-4.908,2.282-8.022,2.282ZM111.048,92.925c2.124,0,3.821-1.068,5.089-3.206,1.268-2.137,1.896-5.342,1.884-9.616,0-2.813-.287-5.155-.86-7.027-.574-1.872-1.383-3.278-2.427-4.22-1.045-.942-2.273-1.413-3.686-1.413-2.113,0-3.804,1.057-5.071,3.169-1.268,2.113-1.908,5.277-1.92,9.49,0,2.85.287,5.225.86,7.126.573,1.902,1.386,3.327,2.436,4.274,1.051.948,2.282,1.422,3.695,1.422Z"/>
  </g>
</svg>