<?xml version="1.0" encoding="UTF-8"?>
<svg id="Layer_1" xmlns="http://www.w3.org/2000/svg" version="1.1" viewBox="0 0 161.042 161.043">
  <!-- Generator: Adobe Illustrator 30.6.0, SVG Export Plug-In . SVG Version: 2.1.4 Build 109)  -->
  <defs>
    <style>
      .st0 {
        fill: none;
        stroke: #000;
        stroke-miterlimit: 10;
      }

      .st1 {
        fill: #fff;
      }

      .st2 {
        fill: red;
      }
    </style>
  </defs>
  <g>
    <g>
      <path class="st2" d="M154.431,49.912c8.45,20.41,7.84,42.31,0,61.22l-.49-.2-22.61-9.36c5.39-13,5.82-28.06,0-42.1l23.1-9.56Z"/>
      <path class="st1" d="M154.431,49.912l-23.1,9.56c-5.81-14.03-16.76-24.38-29.76-29.76l9.34-22.55.23-.55c18.91,7.84,34.84,22.89,43.29,43.3Z"/>
      <path class="st1" d="M153.941,110.932l.49.2c-7.83,18.92-22.89,34.85-43.3,43.3l-9.56-23.1c14.03-5.81,24.38-16.76,29.76-29.76l22.61,9.36Z"/>
      <path class="st2" d="M101.571,29.712c13,5.38,23.95,15.73,29.76,29.76,5.82,14.04,5.39,29.1,0,42.1-5.38,13-15.73,23.95-29.76,29.76-14.04,5.82-29.1,5.39-42.1,0-13-5.38-23.95-15.73-29.76-29.76-5.82-14.04-5.39-29.1,0-42.1,5.38-13,15.73-23.95,29.76-29.76,14.04-5.82,29.1-5.39,42.1,0ZM99.651,126.712c25.52-10.56,37.63-39.81,27.06-65.32-10.56-25.52-39.81-37.63-65.32-27.06-25.52,10.56-37.63,39.81-27.06,65.32,10.56,25.52,39.81,37.63,65.32,27.06Z"/>
      <path class="st1" d="M126.711,61.392c10.57,25.51-1.54,54.76-27.06,65.32-25.51,10.57-54.76-1.54-65.32-27.06-10.57-25.51,1.54-54.76,27.06-65.32,25.51-10.57,54.76,1.54,65.32,27.06Z"/>
      <path class="st2" d="M111.141,6.612l-.23.55-9.34,22.55c-13-5.39-28.06-5.82-42.1,0l-9.16-22.14-.39-.96v-.01c20.41-8.45,42.31-7.82,61.22.01Z"/>
      <path class="st2" d="M101.571,131.332l9.56,23.1c-20.41,8.46-42.31,7.83-61.23,0l.23-.55,9.34-22.55c13,5.39,28.06,5.82,42.1,0Z"/>
      <path class="st1" d="M59.471,131.332l-9.34,22.55-.23.55c-18.91-7.84-34.84-22.89-43.29-43.3l23.1-9.56c5.81,14.03,16.76,24.38,29.76,29.76Z"/>
      <path class="st1" d="M50.311,7.572l9.16,22.14c-14.03,5.81-24.38,16.76-29.76,29.76l-22.63-9.37-.47-.19C14.441,30.992,29.501,15.062,49.911,6.612h.01l.39.96Z"/>
      <path class="st2" d="M7.081,50.102l22.63,9.37c-5.39,13-5.82,28.06,0,42.1l-23.1,9.56c-8.45-20.41-7.84-42.31,0-61.22l.47.19Z"/>
    </g>
    <g>
      <path class="st0" d="M154.431,49.912c8.45,20.41,7.84,42.31,0,61.22-7.83,18.92-22.89,34.85-43.3,43.3-20.41,8.46-42.31,7.83-61.23,0-18.91-7.84-34.84-22.89-43.29-43.3s-7.84-42.31,0-61.22C14.441,30.992,29.501,15.062,49.911,6.612h.01v-.01c20.41-8.45,42.31-7.82,61.22.01,18.91,7.84,34.84,22.89,43.29,43.3Z"/>
      <path class="st0" d="M131.331,59.472c5.82,14.04,5.39,29.1,0,42.1-5.38,13-15.73,23.95-29.76,29.76-14.04,5.82-29.1,5.39-42.1,0-13-5.38-23.95-15.73-29.76-29.76-5.82-14.04-5.39-29.1,0-42.1,5.38-13,15.73-23.95,29.76-29.76,14.04-5.82,29.1-5.39,42.1,0,13,5.38,23.95,15.73,29.76,29.76Z"/>
      <path class="st0" d="M126.711,61.392c10.57,25.51-1.54,54.76-27.06,65.32-25.51,10.57-54.76-1.54-65.32-27.06-10.57-25.51,1.54-54.76,27.06-65.32,25.51-10.57,54.76,1.54,65.32,27.06Z"/>
      <line class="st0" x1="50.311" y1="7.572" x2="59.471" y2="29.712"/>
      <line class="st0" x1="101.571" y1="131.332" x2="111.131" y2="154.432"/>
      <line class="st0" x1="131.331" y1="59.472" x2="154.431" y2="49.912"/>
      <line class="st0" x1="29.711" y1="101.572" x2="6.611" y2="111.132"/>
      <polyline class="st0" points="7.081 50.102 29.711 59.472 30.171 59.662"/>
      <polyline class="st0" points="110.911 7.162 101.571 29.712 101.401 30.122"/>
      <polyline class="st0" points="153.941 110.932 131.331 101.572 130.811 101.352"/>
      <polyline class="st0" points="50.131 153.882 59.471 131.332 59.641 130.932"/>
    </g>
  </g>
  <path d="M79.269,99.119c-2.561,0-4.84-.472-6.838-1.413s-3.582-2.239-4.754-3.894-1.781-3.55-1.83-5.688h7.607c.084,1.438.688,2.603,1.811,3.496s2.457,1.34,4.004,1.34c1.23,0,2.321-.274,3.268-.824.947-.549,1.691-1.315,2.229-2.3s.805-2.116.805-3.396c0-1.305-.273-2.451-.822-3.441-.551-.99-1.309-1.762-2.273-2.318-.967-.555-2.071-.839-3.315-.851-1.086,0-2.141.224-3.16.67-1.021.447-1.814,1.057-2.383,1.829l-6.973-1.25,1.758-19.56h22.674v6.411h-16.209l-.959,9.291h.217c.652-.917,1.637-1.678,2.953-2.282,1.314-.604,2.789-.905,4.418-.905,2.235,0,4.227.525,5.977,1.576,1.75,1.05,3.133,2.49,4.148,4.319,1.014,1.829,1.514,3.933,1.502,6.312.012,2.499-.564,4.718-1.729,6.655-1.166,1.938-2.789,3.459-4.873,4.564-2.082,1.104-4.5,1.657-7.252,1.657Z"/>
</svg>